ModelForces
version=1
nRows=4
nColumns=155
inDegrees=no

This file contains the forces exerted on a model during a simulation.

A force is a generalized force, meaning that it can be either a force (N) or a torque (Nm).

Units are S.I. units (second, meters, Newtons, ...)
Angles are in degrees.

endheader
time	glut_med1_r	glut_med2_r	glut_med3_r	glut_min1_r	glut_min2_r	glut_min3_r	semimem_r	semiten_r	bifemlh_r	bifemsh_r	sar_r	add_long_r	add_brev_r	add_mag1_r	add_mag2_r	add_mag3_r	tfl_r	pect_r	grac_r	glut_max1_r	glut_max2_r	glut_max3_r	iliacus_r	psoas_r	quad_fem_r	gem_r	peri_r	rect_fem_r	vas_med_r	vas_int_r	vas_lat_r	med_gas_r	lat_gas_r	soleus_r	tib_post_r	flex_dig_r	flex_hal_r	tib_ant_r	per_brev_r	per_long_r	per_tert_r	ext_dig_r	ext_hal_r	glut_med1_l	glut_med2_l	glut_med3_l	glut_min1_l	glut_min2_l	glut_min3_l	semimem_l	semiten_l	bifemlh_l	bifemsh_l	sar_l	add_long_l	add_brev_l	add_mag1_l	add_mag2_l	add_mag3_l	tfl_l	pect_l	grac_l	glut_max1_l	glut_max2_l	glut_max3_l	iliacus_l	psoas_l	quad_fem_l	gem_l	peri_l	rect_fem_l	vas_med_l	vas_int_l	vas_lat_l	med_gas_l	lat_gas_l	soleus_l	tib_post_l	flex_dig_l	flex_hal_l	tib_ant_l	per_brev_l	per_long_l	per_tert_l	ext_dig_l	ext_hal_l	ercspn_r	ercspn_l	intobl_r	intobl_l	extobl_r	extobl_l	femur_lat_meniscii_r.femur_lat_r.force.X	femur_lat_meniscii_r.femur_lat_r.force.Y	femur_lat_meniscii_r.femur_lat_r.force.Z	femur_lat_meniscii_r.femur_lat_r.torque.X	femur_lat_meniscii_r.femur_lat_r.torque.Y	femur_lat_meniscii_r.femur_lat_r.torque.Z	femur_lat_meniscii_r.meniscus_lat_r.force.X	femur_lat_meniscii_r.meniscus_lat_r.force.Y	femur_lat_meniscii_r.meniscus_lat_r.force.Z	femur_lat_meniscii_r.meniscus_lat_r.torque.X	femur_lat_meniscii_r.meniscus_lat_r.torque.Y	femur_lat_meniscii_r.meniscus_lat_r.torque.Z	femur_med_meniscii_r.femur_med_r.force.X	femur_med_meniscii_r.femur_med_r.force.Y	femur_med_meniscii_r.femur_med_r.force.Z	femur_med_meniscii_r.femur_med_r.torque.X	femur_med_meniscii_r.femur_med_r.torque.Y	femur_med_meniscii_r.femur_med_r.torque.Z	femur_med_meniscii_r.meniscus_med_r.force.X	femur_med_meniscii_r.meniscus_med_r.force.Y	femur_med_meniscii_r.meniscus_med_r.force.Z	femur_med_meniscii_r.meniscus_med_r.torque.X	femur_med_meniscii_r.meniscus_med_r.torque.Y	femur_med_meniscii_r.meniscus_med_r.torque.Z	femur_med_tibia_r.tibia_upper_r.force.X	femur_med_tibia_r.tibia_upper_r.force.Y	femur_med_tibia_r.tibia_upper_r.force.Z	femur_med_tibia_r.tibia_upper_r.torque.X	femur_med_tibia_r.tibia_upper_r.torque.Y	femur_med_tibia_r.tibia_upper_r.torque.Z	femur_med_tibia_r.femur_med_r.force.X	femur_med_tibia_r.femur_med_r.force.Y	femur_med_tibia_r.femur_med_r.force.Z	femur_med_tibia_r.femur_med_r.torque.X	femur_med_tibia_r.femur_med_r.torque.Y	femur_med_tibia_r.femur_med_r.torque.Z	femur_lat_tibia_r.tibia_upper_r.force.X	femur_lat_tibia_r.tibia_upper_r.force.Y	femur_lat_tibia_r.tibia_upper_r.force.Z	femur_lat_tibia_r.tibia_upper_r.torque.X	femur_lat_tibia_r.tibia_upper_r.torque.Y	femur_lat_tibia_r.tibia_upper_r.torque.Z	femur_lat_tibia_r.femur_lat_r.force.X	femur_lat_tibia_r.femur_lat_r.force.Y	femur_lat_tibia_r.femur_lat_r.force.Z	femur_lat_tibia_r.femur_lat_r.torque.X	femur_lat_tibia_r.femur_lat_r.torque.Y	femur_lat_tibia_r.femur_lat_r.torque.Z	aACL_R	pACL_R	aPCL_R	pPCL_R	aMCL_R	mMCL_R	pMCL_R	aLCL_R	mLCL_R	pLCL_R	aPCL_L	pPCL_L	aMCL_L	aLCL_L
      0.07433928	      0.00000000	     14.15042481	     14.61861912	      6.61679536	      7.52413698	      6.31594982	      0.00000000	    235.29908287	    273.05727569	    414.75323393	    137.87335173	     14.64686210	     10.22014243	      0.00000000	      0.00000000	     10.73709889	      8.70538966	      0.00000000	    121.43347785	      8.80812314	     14.30495629	     10.89605309	     39.29944877	     31.90657769	      0.00000000	      5.53010706	      0.00000000	     45.70696176	      0.00000000	      0.00000000	      0.00000000	     43.22513765	     37.35240333	      0.00000000	     27.04025450	     10.02883361	      7.84319940	     19.79643317	      4.23124190	     17.01078239	      8.66215291	     17.92415910	      5.56565925	      0.00000000	     14.15042481	     14.61861912	      6.61679536	      7.52413698	      6.31594982	      0.00000000	     11.14997779	      8.03233506	     18.32429463	      3.76623149	     14.64686210	     10.22014243	      0.00000000	      0.00000000	     10.73709889	      8.12906944	      0.00000000	      3.92290206	      8.80812314	     14.30495629	     10.89605309	     39.29944877	     31.90657769	      0.00000000	      5.53010706	      0.00000000	     27.72309537	      0.00000000	      0.00000000	      0.00000000	      0.00000000	      0.00000000	     36.38475764	     59.84100742	     10.96435608	      9.56485074	      9.27836247	     10.16277202	     22.16435246	      4.85334124	      6.70541707	      2.00712626	     62.35216367	     62.35216367	     24.02916340	     24.02916340	     40.58184990	     40.58184990	    143.47805078	    489.15425760	    -42.95647412	      5.27665234	      3.48261473	     57.16324380	   -143.47805078	   -489.15425760	     42.95647412	     13.49603088	     -4.02982765	     -0.69221091	     49.14435176	    670.66648228	     68.94557122	    -11.32737234	     -1.19658455	     19.39575197	    -49.14435176	   -670.66648228	    -68.94557122	    -11.90183478	      0.75022109	      1.50399997	      0.00000000	      0.00000000	      0.00000000	      0.00000000	      0.00000000	      0.00000000	      0.00000000	      0.00000000	      0.00000000	      0.00000000	      0.00000000	      0.00000000	      0.00000000	      0.00000000	      0.00000000	      0.00000000	      0.00000000	      0.00000000	      0.00000000	      0.00000000	      0.00000000	      0.00000000	      0.00000000	      0.00000000	     -0.03465854	     -4.24896218	      0.00000000	     30.11725310	      0.00000000	    -16.62137398	    -36.74115480	     -7.78301703	      0.00000000	      0.00000000	      0.00000000	      0.00000000	      0.00000001	      0.00000000
      0.07532286	      0.00000000	     14.09717749	     14.63029737	      6.56449179	      7.46638902	      6.47704616	      0.00000000	    234.32261687	    269.91602240	    412.00042160	    137.74527709	     14.52617490	     10.14002948	      0.00000000	      0.00000000	     10.67452748	      8.65785926	      0.00000000	    121.16909734	      8.81195223	     14.20309124	     10.80843170	     39.07346219	     31.64994004	      0.00000000	      5.49898944	      0.00000000	     45.51113012	      0.00000000	      0.00000000	      0.00000000	     40.10672952	     34.38919053	      0.00000000	     25.55797759	     10.40981639	      8.10129491	     31.16067063	      3.82350346	     15.58960806	      0.00000000	     19.01500705	      5.91446256	      0.00000000	     14.09717749	     14.63029737	      6.56449179	      7.46638902	      6.47704616	      0.00000000	     11.05542413	      8.72295673	     18.17656705	      3.73658468	     14.52617490	     10.14002948	      0.00000000	      0.00000000	     10.67452748	      8.09396824	      0.00000000	      3.89155363	      8.81195223	     14.20309124	     10.80843170	     39.07346219	     31.64994004	      0.00000000	      5.49898944	      0.00000000	     27.65276974	      0.00000000	      0.00000000	      0.00000000	      0.00000000	      0.00000000	     38.05428747	     59.83231665	     11.00780675	      9.67320672	     10.17486938	     10.17859898	     22.20515318	      4.82047747	      6.80358124	      2.04597639	     61.85835356	     61.85835356	     23.82981883	     23.82981883	     40.39369855	     40.39369855	    142.51180846	    492.91114852	    -42.59765231	      5.00548233	      3.46133789	     56.69222073	   -142.51180846	   -492.91114852	     42.59765231	     13.64310105	     -3.99997866	     -0.53557429	     54.11769450	    652.91227875	     73.22526773	    -13.56770074	     -1.32053442	     21.43068492	    -54.11769450	   -652.91227875	    -73.22526773	    -11.38550221	      0.83022068	      1.38304762	      0.00000000	      0.00000000	      0.00000000	      0.00000000	      0.00000000	      0.00000000	      0.00000000	      0.00000000	      0.00000000	      0.00000000	      0.00000000	      0.00000000	      0.00000000	      0.00000000	      0.00000000	      0.00000000	      0.00000000	      0.00000000	      0.00000000	      0.00000000	      0.00000000	      0.00000000	      0.00000000	      0.00000000	     -0.62556788	     -5.15921714	      0.00000000	     32.94699047	      0.00000000	    -16.13157794	    -36.98416296	     -7.74381720	      0.00000000	      0.00000000	      0.00000000	      0.00000000	      0.00000001	      0.00000000
      0.07630645	      0.00000000	     14.03692728	     14.62403174	      6.51290694	      7.40940761	      6.61256690	      0.00000000	    233.37241079	    266.83491654	    409.55562228	    137.67935346	     14.40716442	     10.06101471	      0.00000000	      0.00000000	     10.61095471	      8.61173194	      0.00000000	    120.94613859	      8.80622906	     14.10072044	     10.72171237	     38.85069010	     31.39694981	      0.00000000	      5.46786585	      0.00000000	     45.23782774	      0.00000000	      0.00000000	      0.00000000	     37.09183597	     31.59559272	      0.00000000	     24.05419504	     10.72208682	      8.30996264	     36.43637646	      3.51476595	     14.34071813	      1.92697636	     19.78056418	      6.15759712	      0.00000000	     14.03692728	     14.62403174	      6.51290694	      7.40940761	      6.61256690	      0.00000000	     10.96219159	      9.34848415	     18.03088380	      3.70734486	     14.40716442	     10.06101471	      0.00000000	      0.00000000	     10.61095471	      8.05842536	      0.00000000	      3.86063766	      8.80622906	     14.10072044	     10.72171237	     38.85069010	     31.39694981	      0.00000000	      5.46786585	      0.00000000	     27.57713410	      0.00000000	      0.00000000	      0.00000000	      0.00000000	      0.00000000	     39.61417581	     59.82037504	     11.03280784	      9.76404488	     10.97341081	     10.18982304	     22.24081106	      4.78756412	      6.90842504	      2.08734583	     61.37133703	     61.37133703	     23.63307125	     23.63307125	     40.20825300	     40.20825300	    141.11604746	    492.86682825	    -43.48616262	      5.35301306	      3.42376380	     56.06367543	   -141.11604746	   -492.86682825	     43.48616262	     13.63107052	     -3.94772519	     -0.39733217	     47.51019661	    634.89647325	     72.10512169	    -13.51812253	     -1.16405753	     18.63819829	    -47.51019661	   -634.89647325	    -72.10512169	    -11.09204100	      0.70154064	      1.65001455	      0.00000000	      0.00000000	      0.00000000	      0.00000000	      0.00000000	      0.00000000	      0.00000000	      0.00000000	      0.00000000	      0.00000000	      0.00000000	      0.00000000	      0.00000000	      0.00000000	      0.00000000	      0.00000000	      0.00000000	      0.00000000	      0.00000000	      0.00000000	      0.00000000	      0.00000000	      0.00000000	      0.00000000	     -1.26587264	     -6.06972845	      0.00000000	     35.48056441	      0.00000000	    -15.85767517	    -37.43954385	     -7.99914626	      0.00000000	      0.00000000	      0.00000000	      0.00000000	      0.00000001	      0.00000000
      0.07729003	      0.00000000	     13.97067358	     14.60697023	      6.46203039	      7.35318786	      6.72573652	      0.00000000	    232.42259952	    263.73878553	    407.03910430	    137.61979469	     14.28980562	      9.98308194	      0.00000000	      0.00000000	     10.54650461	      8.56456149	      0.00000000	    120.72622769	      8.79380878	     13.99808436	     10.63591714	     38.63108302	     31.14754874	      0.00000000	      5.43677161	      0.00000000	     44.96195267	      0.00000000	      0.00000000	      0.00000000	     34.19983641	     28.96968346	      0.00000000	     22.52088565	     10.95165802	      8.46048946	     37.13150495	      3.29917380	     13.27097397	      4.73923736	     20.06314760	      6.25371314	      0.00000000	     13.97067358	     14.60697023	      6.46203039	      7.35318786	      6.72573652	      0.00000000	     10.87025958	      9.91652988	     17.88721471	      3.67850606	     14.28980562	      9.98308194	      0.00000000	      0.00000000	     10.54650461	      8.02248104	      0.00000000	      3.83014779	      8.79380878	     13.99808436	     10.63591714	     38.63108302	     31.14754874	      0.00000000	      5.43677161	      0.00000000	     27.49637767	      0.00000000	      0.00000000	      0.00000000	      0.00000000	      0.00000000	     41.07232607	     59.80516822	     11.03990573	      9.83728647	     11.68682068	     10.19670840	     22.27151485	      4.75464635	      7.01965649	      2.13112689	     60.89101415	     60.89101415	     23.43890005	     23.43890005	     40.02547091	     40.02547091	    140.60479817	    489.54488828	    -42.78744974	      5.12745299	      3.41935029	     55.82845429	   -140.60479817	   -489.54488828	     42.78744974	     13.56866486	     -3.93794840	     -0.32416891	     48.81484075	    617.58733126	     73.53028282	    -14.58076214	     -1.18001196	     19.17738108	    -48.81484075	   -617.58733126	    -73.53028282	    -10.65773261	      0.69934346	      1.61497576	      0.00000000	      0.00000000	      0.00000000	      0.00000000	      0.00000000	      0.00000000	      0.00000000	      0.00000000	      0.00000000	      0.00000000	      0.00000000	      0.00000000	      0.00000000	      0.00000000	      0.00000000	      0.00000000	      0.00000000	      0.00000000	      0.00000000	      0.00000000	      0.00000000	      0.00000000	      0.00000000	      0.00000000	     -1.87541667	     -6.94729042	      0.00000000	     38.08187033	      0.00000000	    -15.64408131	    -37.93164325	     -8.36950290	      0.00000000	      0.00000000	      0.00000000	      0.00000000	      0.00000001	      0.00000000
